<svg width="30" height="30" viewBox="0 0 30 30" fill="none" xmlns="http://www.w3.org/2000/svg">
<path d="M21.6287 6.16077C22.2389 5.55058 23.2282 5.55057 23.8384 6.16077C24.4486 6.77096 24.4486 7.76028 23.8384 8.37047L17.2093 14.9996L23.8384 21.6287C24.4486 22.2389 24.4486 23.2282 23.8384 23.8384C23.2282 24.4487 22.2389 24.4487 21.6287 23.8384L14.9996 17.2093L8.37049 23.8384C7.76029 24.4486 6.77096 24.4486 6.16078 23.8384C5.55057 23.2282 5.55057 22.2388 6.16078 21.6287L12.7898 14.9996L6.16078 8.37053C5.55059 7.76033 5.55059 6.77102 6.16078 6.16082C6.77098 5.55063 7.76029 5.55063 8.37049 6.16082L14.9996 12.7899L21.6287 6.16077Z" fill="black"/>
</svg>
