<svg width="40" height="40" viewBox="0 0 40 40" fill="none" xmlns="http://www.w3.org/2000/svg">
<path d="M22.1665 28.833L14.4998 21.1663C14.3332 20.9997 14.2154 20.8191 14.1465 20.6247C14.0765 20.4302 14.0415 20.2219 14.0415 19.9997C14.0415 19.7775 14.0765 19.5691 14.1465 19.3747C14.2154 19.1802 14.3332 18.9997 14.4998 18.833L22.1665 11.1663C22.4721 10.8608 22.8609 10.708 23.3332 10.708C23.8054 10.708 24.1943 10.8608 24.4998 11.1663C24.8054 11.4719 24.9582 11.8608 24.9582 12.333C24.9582 12.8052 24.8054 13.1941 24.4998 13.4997L17.9998 19.9997L24.4998 26.4997C24.8054 26.8052 24.9582 27.1941 24.9582 27.6663C24.9582 28.1386 24.8054 28.5275 24.4998 28.833C24.1943 29.1386 23.8054 29.2913 23.3332 29.2913C22.8609 29.2913 22.4721 29.1386 22.1665 28.833V28.833Z" fill="white"/>
</svg>
