<svg width="40" height="40" viewBox="0 0 40 40" fill="none" xmlns="http://www.w3.org/2000/svg">
<path d="M14.4998 28.833C14.1943 28.5275 14.0415 28.1386 14.0415 27.6663C14.0415 27.1941 14.1943 26.8052 14.4998 26.4997L20.9998 19.9997L14.4998 13.4997C14.1943 13.1941 14.0415 12.8052 14.0415 12.333C14.0415 11.8608 14.1943 11.4719 14.4998 11.1663C14.8054 10.8608 15.1943 10.708 15.6665 10.708C16.1387 10.708 16.5276 10.8608 16.8332 11.1663L24.4998 18.833C24.6665 18.9997 24.7848 19.1802 24.8548 19.3747C24.9237 19.5691 24.9582 19.7775 24.9582 19.9997C24.9582 20.2219 24.9237 20.4302 24.8548 20.6247C24.7848 20.8191 24.6665 20.9997 24.4998 21.1663L16.8332 28.833C16.5276 29.1386 16.1387 29.2913 15.6665 29.2913C15.1943 29.2913 14.8054 29.1386 14.4998 28.833V28.833Z" fill="white"/>
</svg>
