<svg width="24" height="24" viewBox="0 0 24 24" fill="none" xmlns="http://www.w3.org/2000/svg">
<path d="M8 13C7.71667 13 7.479 12.904 7.287 12.712C7.09567 12.5207 7 12.2833 7 12C7 11.7167 7.09567 11.479 7.287 11.287C7.479 11.0957 7.71667 11 8 11H16C16.2833 11 16.5207 11.0957 16.712 11.287C16.904 11.479 17 11.7167 17 12C17 12.2833 16.904 12.5207 16.712 12.712C16.5207 12.904 16.2833 13 16 13H8Z" fill="#6D6D6D"/>
<path d="M11 8C11 7.71667 11.096 7.479 11.288 7.287C11.4793 7.09567 11.7167 7 12 7C12.2833 7 12.521 7.09567 12.713 7.287C12.9043 7.479 13 7.71667 13 8L13 16C13 16.2833 12.9043 16.5207 12.713 16.712C12.521 16.904 12.2833 17 12 17C11.7167 17 11.4793 16.904 11.288 16.712C11.096 16.5207 11 16.2833 11 16L11 8Z" fill="#6D6D6D"/>
</svg>
