<svg width="27" height="28" viewBox="0 0 27 28" fill="none" xmlns="http://www.w3.org/2000/svg">
<path fill-rule="evenodd" clip-rule="evenodd" d="M5.86788 3.35484L5.73187 3.39785L5.57643 3.44086L5.38212 3.50538L5.26554 3.54839L5.16839 3.5914L5.05181 3.65591L4.95466 3.69892L4.89637 3.72043L4.79922 3.76344L4.70207 3.80645L4.60492 3.87097L4.5272 3.93548L4.46891 3.97849L4.41062 4.04301L4.3329 4.15054L4.23575 4.30108L4.17746 4.4086L4.11917 4.51613L4.06088 4.66667L4.02202 4.7957L3.98316 4.96774L3.9443 5.11828L3.78886 5.67742L3.49741 6.66667L3.3614 7.1828L3.1671 7.84946L3.01166 8.43011L2.9728 8.64516L2.93394 8.96774L2.91451 9.26882V9.5914V9.80645L2.85622 9.89247L2.72021 10.086L2.5842 10.2366L2.54534 10.2796L2.46762 10.4086L2.42876 10.4946L2.3899 10.6022L2.33161 10.7742L2.27332 10.9032L2.1956 11.0968L2.11788 11.2903L2.07902 11.4409L1.98187 11.7419L1.94301 11.871L1.86529 12L1.80699 12.086L1.70984 12.1935L1.63212 12.2796L1.5544 12.3871L1.3601 12.6452L1.22409 12.8602L1.14637 13.0108L1.04922 13.2688L1.01036 13.3763L0.990933 13.5484L0.971503 13.7849L0.835492 14.0215L0.699482 14.2796L0.602332 14.4731V14.5161L0.660622 14.5806L0.757772 14.6667L0.893782 14.7527L1.08808 14.8387L1.26295 14.9032L1.47668 14.9677L1.67098 15.0108H1.72927L2.05959 14.3441L2.09845 14.3011L2.23446 14.1935L2.37047 14.0645L2.50648 13.9355L2.70078 13.7204L3.05052 13.3333L3.26425 13.0968L3.3614 12.9677L3.41969 12.8817L3.65285 12.5376L3.84715 12.2366L3.96373 12.043L4.1386 11.7849L4.31347 11.5054L4.44948 11.2903L4.48834 11.2043L4.54663 11.0753L4.60492 10.8817L4.70207 10.5591L4.79922 10.3226L4.80354 10.313L4.7215 11.3118L4.66321 11.8925L4.60492 12.5591L4.48834 13.1398L4.46891 13.3333L4.37176 13.5699L4.29404 13.828L4.27461 13.8925L4.25518 14.0215V14.1505V14.2796L4.35233 14.6022L4.39119 14.7957L4.41062 15.0323V15.1828L4.43005 15.3978L4.46891 15.6344L4.5272 15.7849L4.58549 15.9355L4.70207 16.1075L4.74093 16.1505V16.2796L4.7215 16.4086L4.70207 16.5161V16.6452V16.7312L4.7215 16.7742L4.76036 16.8387L4.81865 16.8817L5.05181 17.0108L5.47927 17.2258L5.90674 17.4194L6.23705 17.5914L6.37306 17.6559L6.54793 17.7204L6.83938 17.8065L7.15026 17.8925L7.67487 18.043L8.23834 18.2151L8.62694 18.3226L8.89896 18.3871H9.2487L9.59845 18.3441L9.83161 18.2796L10.0648 18.172L10.2008 18.1075L10.3368 18.0215L10.3951 17.9785L10.5117 17.871L10.5894 17.7419L10.6477 17.6129L10.6865 17.4839V17.3118L10.6671 17.1398L10.6477 17.0108L10.7837 16.7957L10.9003 16.7097L10.9391 16.6452L10.978 16.5806L10.9974 16.4946L11.0168 16.4086L11.0363 16.2581V15.6344V15.4409L11.0946 15.1613L11.1529 14.8172L11.1917 14.4731L11.25 14.043L11.2889 13.7204L11.3083 13.3333L11.3472 12.9032L11.3666 12.7097L11.4832 13.0323L11.4249 13.1828L11.3666 13.3763L11.3277 13.6129V13.8925V14.129L11.3472 14.4086L11.386 14.7097L11.4443 15.0323L11.5026 15.2473L11.5415 15.3763L11.5997 15.5054L11.658 15.6129L11.7163 15.7419L11.7746 15.8925L11.794 15.9355L11.8329 16.086L11.8523 16.172V16.3226L11.8329 16.4086L11.8135 16.5161V16.7742L11.8329 16.9677L11.8718 17.2043L11.9301 17.3978L11.9495 17.4624L12.0272 17.5484L12.1049 17.6344L12.1632 17.6989L12.1826 17.7634L12.2021 17.871L12.1826 18L12.1632 18.129L12.1438 18.3011L12.1244 18.5161L12.0855 18.7957L12.1438 18.8387L12.2409 18.8817L12.3769 18.9247L12.513 18.9677L12.7267 19.0108L12.9016 19.0323L13.0959 19.0538H13.2124L13.3679 19.0323L13.4262 19.0108L13.4456 18.9892V18.172L13.465 18.086L13.5039 18.0215L13.5622 17.9355L13.601 17.8495L13.6205 17.6989L13.6399 17.5054L13.601 16.4516L13.6788 16.172L13.7759 15.7849L13.7953 15.2473L13.6788 12.2151L13.5622 11.7419L13.3096 10.6882L13.1736 9.39785L12.9987 8.08602L12.785 7.01075L12.5907 6.21505L12.5324 5.97849L12.4158 5.65591L12.3187 5.44086L12.2215 5.26882L12.1244 5.11828L11.9495 4.92473L11.7358 4.75269L11.5415 4.62366L11.114 4.30108L10.8031 4.10753L10.5311 3.93548L10.5505 3.89247L10.5699 3.84946V3.76344L10.6088 3.69892L10.6477 3.5914L10.6865 3.37634V3.2043L10.6671 3.01075L10.6088 2.68817L10.4922 2.21505L10.3562 1.76344L10.2396 1.50538L10.2591 1.24731L10.2396 1.09677L10.2008 0.967742L10.1619 0.924731L10.1036 0.88172L10.0453 0.860215L9.92876 0.817204L9.81218 0.795699L9.6956 0.774194L9.55959 0.752688L9.42358 0.731183L9.26814 0.709677H9.13212H9.03497L8.80181 0.731183L8.45207 0.774194L8.04404 0.83871L7.51943 0.924731L7.1114 1.01075L6.9171 1.05376L6.76166 1.09677L6.62565 1.16129L6.5285 1.22581L6.45078 1.31183L6.35363 1.46237L6.29534 1.5914L6.25648 1.69892L6.23705 1.82796L6.21762 2L6.19819 2.23656L6.17876 2.4086V2.47312L6.04275 2.75269L5.9456 2.96774L5.92617 3.01075L5.88731 3.16129L5.86788 3.24731V3.35484Z" fill="#D9D9D9"/>
<path fill-rule="evenodd" clip-rule="evenodd" d="M17.8679 3.35484L17.7319 3.39785L17.5764 3.44086L17.3821 3.50538L17.2655 3.54839L17.1684 3.5914L17.0518 3.65591L16.9547 3.69892L16.8964 3.72043L16.7992 3.76344L16.7021 3.80645L16.6049 3.87097L16.5272 3.93548L16.4689 3.97849L16.4106 4.04301L16.3329 4.15054L16.2358 4.30108L16.1775 4.4086L16.1192 4.51613L16.0609 4.66667L16.022 4.7957L15.9832 4.96774L15.9443 5.11828L15.7889 5.67742L15.4974 6.66667L15.3614 7.1828L15.1671 7.84946L15.0117 8.43011L14.9728 8.64516L14.9339 8.96774L14.9145 9.26882V9.5914V9.80645L14.8562 9.89247L14.7202 10.086L14.5842 10.2366L14.5453 10.2796L14.4676 10.4086L14.4288 10.4946L14.3899 10.6022L14.3316 10.7742L14.2733 10.9032L14.1956 11.0968L14.1179 11.2903L14.079 11.4409L13.9819 11.7419L13.943 11.871L13.8653 12L13.807 12.086L13.7098 12.1935L13.6321 12.2796L13.5544 12.3871L13.3601 12.6452L13.2241 12.8602L13.1464 13.0108L13.0492 13.2688L13.0104 13.3763L12.9909 13.5484L12.9715 13.7849L12.8355 14.0215L12.6995 14.2796L12.6023 14.4731V14.5161L12.6606 14.5806L12.7578 14.6667L12.8938 14.7527L13.0881 14.8387L13.263 14.9032L13.4767 14.9677L13.671 15.0108H13.7293L14.0596 14.3441L14.0984 14.3011L14.2345 14.1935L14.3705 14.0645L14.5065 13.9355L14.7008 13.7204L15.0505 13.3333L15.2642 13.0968L15.3614 12.9677L15.4197 12.8817L15.6528 12.5376L15.8472 12.2366L15.9637 12.043L16.1386 11.7849L16.3135 11.5054L16.4495 11.2903L16.4883 11.2043L16.5466 11.0753L16.6049 10.8817L16.7021 10.5591L16.7992 10.3226L16.8035 10.313L16.7215 11.3118L16.6632 11.8925L16.6049 12.5591L16.4883 13.1398L16.4689 13.3333L16.3718 13.5699L16.294 13.828L16.2746 13.8925L16.2552 14.0215V14.1505V14.2796L16.3523 14.6022L16.3912 14.7957L16.4106 15.0323V15.1828L16.4301 15.3978L16.4689 15.6344L16.5272 15.7849L16.5855 15.9355L16.7021 16.1075L16.7409 16.1505V16.2796L16.7215 16.4086L16.7021 16.5161V16.6452V16.7312L16.7215 16.7742L16.7604 16.8387L16.8187 16.8817L17.0518 17.0108L17.4793 17.2258L17.9067 17.4194L18.237 17.5914L18.3731 17.6559L18.5479 17.7204L18.8394 17.8065L19.1503 17.8925L19.6749 18.043L20.2383 18.2151L20.6269 18.3226L20.899 18.3871H21.2487L21.5984 18.3441L21.8316 18.2796L22.0648 18.172L22.2008 18.1075L22.3368 18.0215L22.3951 17.9785L22.5117 17.871L22.5894 17.7419L22.6477 17.6129L22.6865 17.4839V17.3118L22.6671 17.1398L22.6477 17.0108L22.7837 16.7957L22.9003 16.7097L22.9391 16.6452L22.978 16.5806L22.9974 16.4946L23.0168 16.4086L23.0363 16.2581V15.6344V15.4409L23.0946 15.1613L23.1529 14.8172L23.1917 14.4731L23.25 14.043L23.2889 13.7204L23.3083 13.3333L23.3472 12.9032L23.3666 12.7097L23.4832 13.0323L23.4249 13.1828L23.3666 13.3763L23.3277 13.6129V13.8925V14.129L23.3472 14.4086L23.386 14.7097L23.4443 15.0323L23.5026 15.2473L23.5415 15.3763L23.5997 15.5054L23.658 15.6129L23.7163 15.7419L23.7746 15.8925L23.794 15.9355L23.8329 16.086L23.8523 16.172V16.3226L23.8329 16.4086L23.8135 16.5161V16.7742L23.8329 16.9677L23.8718 17.2043L23.9301 17.3978L23.9495 17.4624L24.0272 17.5484L24.1049 17.6344L24.1632 17.6989L24.1826 17.7634L24.2021 17.871L24.1826 18L24.1632 18.129L24.1438 18.3011L24.1244 18.5161L24.0855 18.7957L24.1438 18.8387L24.2409 18.8817L24.3769 18.9247L24.513 18.9677L24.7267 19.0108L24.9016 19.0323L25.0959 19.0538H25.2124L25.3679 19.0323L25.4262 19.0108L25.4456 18.9892V18.172L25.465 18.086L25.5039 18.0215L25.5622 17.9355L25.601 17.8495L25.6205 17.6989L25.6399 17.5054L25.601 16.4516L25.6788 16.172L25.7759 15.7849L25.7953 15.2473L25.6788 12.2151L25.5622 11.7419L25.3096 10.6882L25.1736 9.39785L24.9987 8.08602L24.785 7.01075L24.5907 6.21505L24.5324 5.97849L24.4158 5.65591L24.3187 5.44086L24.2215 5.26882L24.1244 5.11828L23.9495 4.92473L23.7358 4.75269L23.5415 4.62366L23.114 4.30108L22.8031 4.10753L22.5311 3.93548L22.5505 3.89247L22.5699 3.84946V3.76344L22.6088 3.69892L22.6477 3.5914L22.6865 3.37634V3.2043L22.6671 3.01075L22.6088 2.68817L22.4922 2.21505L22.3562 1.76344L22.2396 1.50538L22.2591 1.24731L22.2396 1.09677L22.2008 0.967742L22.1619 0.924731L22.1036 0.88172L22.0453 0.860215L21.9288 0.817204L21.8122 0.795699L21.6956 0.774194L21.5596 0.752688L21.4236 0.731183L21.2681 0.709677H21.1321H21.035L20.8018 0.731183L20.4521 0.774194L20.044 0.83871L19.5194 0.924731L19.1114 1.01075L18.9171 1.05376L18.7617 1.09677L18.6256 1.16129L18.5285 1.22581L18.4508 1.31183L18.3536 1.46237L18.2953 1.5914L18.2565 1.69892L18.237 1.82796L18.2176 2L18.1982 2.23656L18.1788 2.4086V2.47312L18.0427 2.75269L17.9456 2.96774L17.9262 3.01075L17.8873 3.16129L17.8679 3.24731V3.35484Z" fill="#D9D9D9"/>
<path fill-rule="evenodd" clip-rule="evenodd" d="M10.8238 5.52903L10.6425 5.5871L10.4352 5.64516L10.1762 5.73226L10.0207 5.79032L9.89119 5.84839L9.73575 5.93548L9.60622 5.99355L9.5285 6.02258L9.39896 6.08065L9.26943 6.13871L9.1399 6.22581L9.03627 6.3129L8.95855 6.37097L8.88083 6.45806L8.7772 6.60323L8.64767 6.80645L8.56995 6.95161L8.49223 7.09677L8.41451 7.3L8.36269 7.47419L8.31088 7.70645L8.25907 7.90968L8.05181 8.66452L7.66321 10L7.48187 10.6968L7.2228 11.5968L7.01554 12.3806L6.96373 12.671L6.91192 13.1065L6.88601 13.5129V13.9484V14.2387L6.80829 14.3548L6.62694 14.6161L6.4456 14.8194L6.39378 14.8774L6.29016 15.0516L6.23834 15.1677L6.18653 15.3129L6.10881 15.5452L6.03109 15.7194L5.92746 15.9806L5.82383 16.2419L5.77202 16.4452L5.64249 16.8516L5.59067 17.0258L5.48705 17.2L5.40933 17.3161L5.27979 17.4613L5.17617 17.5774L5.07254 17.7226L4.81347 18.071L4.63212 18.3613L4.5285 18.5645L4.39896 18.9129L4.34715 19.0581L4.32124 19.2903L4.29534 19.6097L4.11399 19.929L3.93264 20.2774L3.80311 20.5387V20.5968L3.88083 20.6839L4.01036 20.8L4.19171 20.9161L4.45078 21.0323L4.68394 21.1194L4.96891 21.2065L5.22798 21.2645H5.3057L5.74611 20.3645L5.79793 20.3065L5.97927 20.1613L6.16062 19.9871L6.34197 19.8129L6.60104 19.5226L7.06736 19L7.35233 18.6806L7.48187 18.5065L7.55959 18.3903L7.87047 17.9258L8.12953 17.5194L8.28497 17.2581L8.51813 16.9097L8.7513 16.5323L8.93264 16.2419L8.98446 16.1258L9.06218 15.9516L9.1399 15.6903L9.26943 15.2548L9.39896 14.9355L9.40472 14.9226L9.29534 16.271L9.21762 17.0548L9.1399 17.9548L8.98446 18.7387L8.95855 19L8.82902 19.3194L8.72539 19.6677L8.69948 19.7548L8.67358 19.929V20.1032V20.2774L8.80311 20.7129L8.85492 20.9742L8.88083 21.2935V21.4968L8.90674 21.7871L8.95855 22.1065L9.03627 22.3097L9.11399 22.5129L9.26943 22.7452L9.32124 22.8032V22.9774L9.29534 23.1516L9.26943 23.2968V23.471V23.5871L9.29534 23.6452L9.34715 23.7323L9.42487 23.7903L9.73575 23.9645L10.3057 24.2548L10.8756 24.5161L11.3161 24.7484L11.4974 24.8355L11.7306 24.9226L12.1192 25.0387L12.5337 25.1548L13.2332 25.3581L13.9845 25.5903L14.5026 25.7355L14.8653 25.8226H15.3316L15.7979 25.7645L16.1088 25.6774L16.4197 25.5323L16.601 25.4452L16.7824 25.329L16.8601 25.271L17.0155 25.1258L17.1192 24.9516L17.1969 24.7774L17.2487 24.6032V24.371L17.2228 24.1387L17.1969 23.9645L17.3782 23.6742L17.5337 23.5581L17.5855 23.471L17.6373 23.3839L17.6632 23.2677L17.6891 23.1516L17.715 22.9484V22.1065V21.8452L17.7927 21.4677L17.8705 21.0032L17.9223 20.5387L18 19.9581L18.0518 19.5226L18.0777 19L18.1295 18.4194L18.1554 18.1581L18.3109 18.5935L18.2332 18.7968L18.1554 19.0581L18.1036 19.3774V19.7548V20.0742L18.1295 20.4516L18.1813 20.8581L18.2591 21.2935L18.3368 21.5839L18.3886 21.7581L18.4663 21.9323L18.544 22.0774L18.6218 22.2516L18.6995 22.4548L18.7254 22.5129L18.7772 22.7161L18.8031 22.8323V23.0355L18.7772 23.1516L18.7513 23.2968V23.6452L18.7772 23.9065L18.829 24.2258L18.9067 24.4871L18.9326 24.5742L19.0363 24.6903L19.1399 24.8065L19.2176 24.8935L19.2435 24.9806L19.2694 25.1258L19.2435 25.3L19.2176 25.4742L19.1917 25.7065L19.1658 25.9968L19.114 26.3742L19.1917 26.4323L19.3212 26.4903L19.5026 26.5484L19.6839 26.6065L19.9689 26.6645L20.2021 26.6935L20.4611 26.7226H20.6166L20.8238 26.6935L20.9016 26.6645L20.9275 26.6355V25.5323L20.9534 25.4161L21.0052 25.329L21.0829 25.2129L21.1347 25.0968L21.1606 24.8935L21.1865 24.6323L21.1347 23.2097L21.2383 22.8323L21.3679 22.3097L21.3938 21.5839L21.2383 17.4903L21.0829 16.8516L20.7461 15.429L20.5648 13.6871L20.3316 11.9161L20.0466 10.4645L19.7876 9.39032L19.7098 9.07097L19.5544 8.63548L19.4249 8.34516L19.2953 8.1129L19.1658 7.90968L18.9326 7.64839L18.6477 7.41613L18.3886 7.24194L17.8187 6.80645L17.4041 6.54516L17.0415 6.3129L17.0674 6.25484L17.0933 6.19677V6.08065L17.1451 5.99355L17.1969 5.84839L17.2487 5.55806V5.32581L17.2228 5.06452L17.1451 4.62903L16.9896 3.99032L16.8083 3.38065L16.6528 3.03226L16.6788 2.68387L16.6528 2.48065L16.601 2.30645L16.5492 2.24839L16.4715 2.19032L16.3938 2.16129L16.2383 2.10323L16.0829 2.07419L15.9275 2.04516L15.7461 2.01613L15.5648 1.9871L15.3575 1.95806H15.1762H15.0466L14.7358 1.9871L14.2694 2.04516L13.7254 2.13226L13.0259 2.24839L12.4819 2.36452L12.2228 2.42258L12.0155 2.48065L11.8342 2.56774L11.7047 2.65484L11.601 2.77097L11.4715 2.97419L11.3938 3.14839L11.342 3.29355L11.3161 3.46774L11.2902 3.7L11.2642 4.01935L11.2383 4.25161V4.33871L11.057 4.71613L10.9275 5.00645L10.9016 5.06452L10.8497 5.26774L10.8238 5.38387V5.52903Z" fill="black"/>
</svg>
